<svg width="106" height="104" viewBox="0 0 106 104" fill="none" xmlns="http://www.w3.org/2000/svg">
<ellipse cx="52.6321" cy="52" rx="52.6321" ry="52" fill="#D8E4F1"/>
<path d="M70.4741 47.3245L59.1746 45.7277L54.1235 35.7703C53.9855 35.4977 53.7586 35.277 53.4782 35.1428C52.775 34.8053 51.9206 35.0866 51.569 35.7703L46.5179 45.7277L35.2184 47.3245C34.9069 47.3678 34.6221 47.5106 34.404 47.7269C34.1404 47.9904 33.9951 48.3449 34.0001 48.7125C34.0051 49.0801 34.16 49.4307 34.4307 49.6873L42.606 57.4377L40.6746 68.3817C40.6293 68.6363 40.6582 68.8981 40.7582 69.1375C40.8581 69.3769 41.0251 69.5842 41.2401 69.7361C41.455 69.8879 41.7095 69.9781 41.9745 69.9965C42.2395 70.0149 42.5046 69.9607 42.7395 69.84L52.8462 64.6731L62.953 69.84C63.2289 69.9828 63.5493 70.0304 63.8564 69.9785C64.6308 69.8487 65.1514 69.1347 65.0179 68.3817L63.0865 57.4377L71.2618 49.6873C71.4843 49.4752 71.6311 49.1983 71.6756 48.8953C71.7958 48.1381 71.2529 47.437 70.4741 47.3245Z" fill="#296DB3"/>
</svg>
