<svg width="56" height="56" viewBox="0 0 56 56" fill="none" xmlns="http://www.w3.org/2000/svg">
<circle cx="28" cy="28" r="28" fill="#F5D8D8"/>
<path d="M17.2227 24.8503C17.0653 24.8517 16.9104 24.8114 16.7735 24.7336C16.6732 24.6772 16.5851 24.6013 16.5144 24.5105C16.4437 24.4196 16.3919 24.3156 16.3619 24.2044C16.3319 24.0933 16.3244 23.9773 16.3398 23.8632C16.3552 23.7491 16.3932 23.6393 16.4515 23.5401C17.5762 21.6628 20.9982 17.2812 28.4651 17.2812C31.701 17.2812 34.539 18.1312 36.8964 19.8066C38.8366 21.1816 39.924 22.7379 40.442 23.4876C40.5077 23.582 40.5538 23.6887 40.5777 23.8013C40.6015 23.9139 40.6026 24.0301 40.5809 24.1431C40.5591 24.2561 40.515 24.3637 40.4511 24.4593C40.3871 24.555 40.3047 24.637 40.2086 24.7004C40.0123 24.8301 39.7731 24.8784 39.5418 24.8348C39.3105 24.7913 39.1053 24.6593 38.9696 24.467C38.0321 23.1189 35.1737 19.0167 28.4651 19.0167C21.917 19.0167 18.9565 22.7916 17.9922 24.4104C17.9147 24.5456 17.8025 24.6576 17.6673 24.735C17.532 24.8123 17.3785 24.8521 17.2227 24.8503Z" fill="#C92B2B"/>
<path d="M32.2262 42.0001C32.1518 42.001 32.0775 41.9925 32.0051 41.975C26.5887 40.6333 24.5662 35.2186 24.4839 34.9934L24.4711 34.9438C24.4268 34.7875 23.34 31.0744 25.0084 28.8997C25.7732 27.908 26.9364 27.3993 28.4723 27.3993C29.9004 27.3993 30.9306 27.8432 31.6388 28.762C32.2221 29.5122 32.4555 30.4374 32.6812 31.3288C33.1555 33.185 33.4979 34.1598 35.4691 34.2601C36.3348 34.3039 36.9036 33.7975 37.2262 33.3664C38.0983 32.191 38.2499 30.2747 37.5925 28.5829C36.7478 26.3994 33.7499 22.2827 28.4642 22.2827C26.2078 22.2827 24.1345 23.0078 22.472 24.3705C21.0958 25.4993 20.0055 27.093 19.4805 28.7311C18.5069 31.7809 19.7839 36.5749 19.7961 36.6186C19.8259 36.7302 19.8331 36.8466 19.8172 36.961C19.8013 37.0754 19.7627 37.1855 19.7036 37.2847C19.6445 37.3839 19.5661 37.4703 19.4731 37.5387C19.3801 37.6072 19.2743 37.6563 19.162 37.6833C18.9351 37.7436 18.6936 37.7127 18.4893 37.5971C18.2849 37.4815 18.134 37.2904 18.0688 37.0649C18.0105 36.8461 16.6466 31.733 17.7713 28.2084C18.9963 24.3892 22.777 20.5391 28.4659 20.5391C31.0951 20.5391 33.579 21.4328 35.6523 23.1204C37.2577 24.433 38.569 26.1958 39.2551 27.9582C40.1272 30.2082 39.8932 32.7335 38.6606 34.3832C37.8393 35.4834 36.6696 36.0586 35.374 35.9962C31.9987 35.827 31.392 33.4709 30.9498 31.7523C30.4948 29.9894 30.2037 29.1395 28.4659 29.1395C27.5116 29.1395 26.8413 29.402 26.4242 29.9457C25.8554 30.6894 25.8111 31.8521 25.8741 32.6956C25.9154 33.2833 26.0151 33.8654 26.1716 34.4334C26.3104 34.7834 28.1182 39.2169 32.4479 40.2897C32.5598 40.3162 32.6653 40.3647 32.7583 40.4323C32.8513 40.5 32.93 40.5854 32.9897 40.6837C33.0494 40.782 33.089 40.8912 33.1061 41.0049C33.1233 41.1186 33.1176 41.2346 33.0896 41.3461C33.0368 41.5344 32.9238 41.7003 32.7679 41.8183C32.612 41.9364 32.4218 42.0002 32.2262 42.0001Z" fill="#C92B2B"/>
<path d="M25.2747 41.6013C25.1533 41.6015 25.033 41.5773 24.9212 41.5301C24.8093 41.4829 24.7081 41.4137 24.6236 41.3265C22.4559 39.0514 21.2297 36.5074 20.7682 33.3264V33.3095C20.5092 31.2036 20.8884 28.222 22.7464 26.1721C24.1179 24.6595 26.0459 23.8906 28.4668 23.8906C31.3299 23.8906 33.5799 25.2218 34.9828 27.7343C36.0008 29.5597 36.2026 31.3786 36.2079 31.4532C36.2186 31.5684 36.2064 31.6845 36.1722 31.7949C36.1379 31.9053 36.0822 32.0079 36.0082 32.0968C35.9342 32.1856 35.8435 32.259 35.7411 32.3128C35.6387 32.3665 35.5268 32.3995 35.4116 32.4099C35.1793 32.4351 34.9463 32.368 34.7631 32.2229C34.5798 32.0779 34.461 31.8666 34.4322 31.6347C34.2785 30.5433 33.9253 29.4895 33.3903 28.526C32.3029 26.6073 30.6485 25.6319 28.4604 25.6319C26.5703 25.6319 25.0915 26.2007 24.0741 27.3237C22.6076 28.9425 22.3241 31.4363 22.5253 33.086C22.9296 35.899 24.0105 38.1367 25.9193 40.1365C25.9989 40.2193 26.0611 40.3174 26.1021 40.4248C26.1431 40.5322 26.1622 40.6467 26.158 40.7616C26.1539 40.8765 26.1267 40.9893 26.0781 41.0935C26.0294 41.1977 25.9603 41.291 25.8749 41.3679C25.7104 41.517 25.4967 41.6001 25.2747 41.6013Z" fill="#C92B2B"/>
<path d="M35.2612 39.0936C33.3653 39.0936 31.7535 38.5686 30.4637 37.525C27.8724 35.4371 27.5819 32.0368 27.5691 31.8933C27.5508 31.6577 27.6269 31.4245 27.7805 31.2451C27.9342 31.0656 28.1528 30.9545 28.3884 30.9363C28.6239 30.918 28.8571 30.9941 29.0366 31.1477C29.216 31.3014 29.3271 31.52 29.3454 31.7556C29.3518 31.8057 29.6108 34.5872 31.6082 36.1891C32.7901 37.1329 34.3698 37.5075 36.3165 37.2887C36.5491 37.2605 36.7835 37.3255 36.9683 37.4696C37.1532 37.6137 37.2735 37.8251 37.3029 38.0576C37.3157 38.1724 37.3054 38.2887 37.2727 38.3995C37.2401 38.5104 37.1857 38.6136 37.1127 38.7032C37.0397 38.7928 36.9496 38.867 36.8477 38.9214C36.7457 38.9758 36.634 39.0093 36.5189 39.0201C36.1014 39.0688 35.6815 39.0933 35.2612 39.0936Z" fill="#C92B2B"/>
<path d="M36.7589 15.9128C36.0192 15.4316 33.3964 14 28.4647 14C23.288 14 20.6589 15.5815 20.0773 15.9834C20.0388 16.007 20.0029 16.0343 19.9699 16.0651C19.9664 16.0684 19.9619 16.0705 19.9571 16.0709C19.8642 16.152 19.7897 16.252 19.7385 16.3641C19.6873 16.4763 19.6606 16.5981 19.6602 16.7213C19.6618 16.8369 19.6861 16.951 19.7319 17.0572C19.7777 17.1633 19.844 17.2594 19.9269 17.3398C20.0099 17.4203 20.1079 17.4836 20.2154 17.5261C20.3229 17.5687 20.4377 17.5896 20.5533 17.5876C20.7385 17.5875 20.9193 17.5307 21.0713 17.4249C21.0964 17.4062 23.3592 15.7436 28.4665 15.7436C33.5737 15.7436 35.8488 17.4004 35.8733 17.4126C36.0286 17.5278 36.2172 17.5892 36.4106 17.5876C36.5263 17.5894 36.6411 17.5683 36.7486 17.5256C36.8561 17.4828 36.9541 17.4193 37.037 17.3386C37.1199 17.2579 37.186 17.1616 37.2316 17.0553C37.2771 16.949 37.3012 16.8347 37.3025 16.719C37.3026 16.5458 37.2509 16.3764 37.154 16.2328C37.0571 16.0891 36.9195 15.9777 36.7589 15.9128Z" fill="#C92B2B"/>
</svg>
