<svg width="16" height="13" viewBox="0 0 16 13" fill="none" xmlns="http://www.w3.org/2000/svg">
<path d="M1.46589 4.19888C1.65909 4.33521 2.24146 4.74012 3.21304 5.41339C4.18465 6.08666 4.92897 6.60506 5.44603 6.96862C5.50284 7.00848 5.62353 7.09511 5.80816 7.22863C5.99282 7.36225 6.14626 7.47022 6.26835 7.55258C6.39053 7.63491 6.53824 7.72727 6.71162 7.82951C6.88493 7.93167 7.04831 8.0085 7.20172 8.05937C7.35516 8.11066 7.49719 8.13606 7.62785 8.13606H7.63642H7.64502C7.77568 8.13606 7.91777 8.11063 8.07121 8.05937C8.22455 8.0085 8.38808 7.93158 8.56125 7.82951C8.73451 7.72715 8.88221 7.63488 9.0044 7.55258C9.12658 7.47022 9.2799 7.36225 9.46462 7.22863C9.64922 7.09499 9.77006 7.00848 9.82687 6.96862C10.3495 6.60506 11.6792 5.68172 13.8155 4.1987C14.2302 3.90905 14.5768 3.55955 14.8551 3.15043C15.1337 2.74149 15.2728 2.3125 15.2728 1.86368C15.2728 1.48862 15.1378 1.16757 14.8679 0.900548C14.598 0.633466 14.2784 0.5 13.9092 0.5H1.36359C0.926115 0.5 0.589449 0.647706 0.353651 0.943117C0.117884 1.23859 0 1.60791 0 2.05106C0 2.40901 0.156303 2.7969 0.468759 3.21449C0.781186 3.63212 1.11367 3.96027 1.46589 4.19888Z" fill="white"/>
<path d="M14.4205 5.11255C12.557 6.3738 11.142 7.35401 10.1762 8.05295C9.85239 8.2915 9.58967 8.47771 9.3879 8.61115C9.18613 8.74467 8.9178 8.88104 8.5825 9.02017C8.24733 9.15952 7.93496 9.22898 7.64514 9.22898H7.63645H7.62788C7.33811 9.22898 7.02557 9.15952 6.69039 9.02017C6.35522 8.88104 6.0867 8.74467 5.885 8.61115C5.68335 8.47771 5.42054 8.2915 5.09671 8.05295C4.32961 7.49049 2.91769 6.51023 0.860889 5.11255C0.53694 4.89678 0.250007 4.64946 0 4.37109V11.138C0 11.5132 0.133466 11.8341 0.400548 12.1012C0.667571 12.3683 0.988654 12.5018 1.36368 12.5018H13.9093C14.2842 12.5018 14.6053 12.3683 14.8723 12.1012C15.1395 11.834 15.2729 11.5133 15.2729 11.138V4.37109C15.0285 4.6437 14.7445 4.89102 14.4205 5.11255Z" fill="white"/>
</svg>
