<svg width="386" height="213" viewBox="0 0 386 213" fill="none" xmlns="http://www.w3.org/2000/svg">
<path d="M103.171 360.999C99.3295 356.499 95.4876 351.998 91.6474 347.497C62.3657 313.19 31.2936 285.522 18.0542 238.384C5.85704 194.963 8.15574 148.148 29.3261 113.691C53.6754 74.0604 103.783 52.4997 147.545 74.2633C166.11 83.4954 181.934 100.502 199.984 111.292C220.476 123.543 242.67 125.492 264.188 126.132C279.368 126.585 294.818 128.004 309.728 133.765C363.863 154.68 368.535 218.33 374.024 272.412L103.171 360.999Z" fill="#F4F7FB"/>
<path d="M99.3619 147.751C101.394 147.751 103.042 146.103 103.042 144.071C103.042 142.038 101.394 140.391 99.3619 140.391C97.3293 140.391 95.6816 142.038 95.6816 144.071C95.6816 146.103 97.3293 147.751 99.3619 147.751Z" fill="#296DB3"/>
<path d="M99.3612 151.945C95.0206 151.945 91.4883 148.413 91.4883 144.072C91.4883 139.732 95.0206 136.199 99.3612 136.199C103.702 136.199 107.234 139.732 107.234 144.072C107.234 148.413 103.705 151.945 99.3612 151.945ZM99.3612 136.54C95.2098 136.54 91.8322 139.917 91.8322 144.069C91.8322 148.22 95.2098 151.598 99.3612 151.598C103.513 151.598 106.89 148.22 106.89 144.069C106.89 139.921 103.513 136.54 99.3612 136.54Z" fill="#296DB3"/>
<path d="M66.0789 90.6852C66.8387 90.6852 67.4547 90.0692 67.4547 89.3094C67.4547 88.5496 66.8387 87.9336 66.0789 87.9336C65.3191 87.9336 64.7031 88.5496 64.7031 89.3094C64.7031 90.0692 65.3191 90.6852 66.0789 90.6852Z" fill="#296DB3"/>
<path d="M263.199 100C265.132 100 266.699 98.433 266.699 96.5C266.699 94.567 265.132 93 263.199 93C261.266 93 259.699 94.567 259.699 96.5C259.699 98.433 261.266 100 263.199 100Z" fill="#296DB3"/>
<path d="M304.449 232.499C293.559 232.499 284.699 223.639 284.699 212.749C284.699 201.86 293.559 193 304.449 193C315.338 193 324.198 201.86 324.198 212.749C324.198 223.639 315.338 232.499 304.449 232.499ZM304.449 193.344C293.748 193.344 285.043 202.049 285.043 212.749C285.043 223.45 293.748 232.155 304.449 232.155C315.149 232.155 323.854 223.45 323.854 212.749C323.854 202.049 315.149 193.344 304.449 193.344Z" fill="#296DB3"/>
<path d="M261.888 138.338C261.888 138.338 267.227 133.012 268.47 128.458C269.714 123.901 269.169 122.112 267.337 120.545C265.506 118.978 262.462 121.533 261.852 124.037C261.242 126.541 260.702 130.912 261.888 138.338Z" fill="#D8E4F1"/>
<path d="M267.975 136.622C267.975 136.622 275.506 136.25 279.483 133.702C283.46 131.154 284.256 129.464 283.947 127.073C283.639 124.681 279.668 124.537 277.536 125.986C275.404 127.435 272.071 130.317 267.975 136.622Z" fill="#D8E4F1"/>
<path d="M254.401 143.012C254.401 143.012 258.538 135.64 258.492 130.345C258.446 125.051 257.314 123.286 254.86 122.152C252.405 121.018 249.902 124.702 250.005 127.592C250.11 130.479 250.858 135.361 254.401 143.012Z" fill="#D8E4F1"/>
<path d="M249.746 143.382C249.746 143.382 250.606 134.972 248.458 130.132C246.308 125.293 244.566 124.126 241.865 124.062C239.161 123.999 238.332 128.376 239.575 130.985C240.821 133.593 243.451 137.773 249.746 143.382Z" fill="#D8E4F1"/>
<path d="M248.123 146.342C248.123 146.342 245.159 142.197 242.256 140.866C239.354 139.535 238.1 139.703 236.853 140.753C235.607 141.803 236.976 144.113 238.581 144.796C240.182 145.478 243.041 146.318 248.123 146.342Z" fill="#D8E4F1"/>
<path d="M263.309 140.587C263.309 140.587 270.294 137.749 274.975 138.382C279.655 139.014 281.09 140.213 281.819 142.511C282.548 144.809 279.008 146.615 276.463 146.199C273.919 145.785 269.683 144.576 263.309 140.587Z" fill="#D8E4F1"/>
<path d="M256.081 145.661C256.081 145.661 264.484 144.725 269.34 146.833C274.199 148.94 275.381 150.672 275.467 153.374C275.553 156.076 271.184 156.945 268.565 155.724C265.948 154.501 261.744 151.907 256.081 145.661Z" fill="#D8E4F1"/>
<path d="M253.925 149.803C253.925 149.803 262.006 152.29 265.624 156.157C269.241 160.025 269.638 162.083 268.641 164.596C267.644 167.109 263.291 166.167 261.374 164.003C259.458 161.84 256.634 157.787 253.925 149.803Z" fill="#D8E4F1"/>
<path d="M250.566 150.141C250.566 150.141 253.227 154.489 253.32 157.68C253.414 160.871 252.771 161.961 251.317 162.698C249.863 163.437 248.272 161.273 248.268 159.53C248.265 157.789 248.606 154.83 250.566 150.141Z" fill="#D8E4F1"/>
<path d="M270.647 135.002C270.068 135.387 269.227 135.934 268.159 136.614C266.645 137.578 264.677 138.816 262.368 140.256C262.075 140.439 261.775 140.627 261.47 140.817C261.377 140.874 261.288 140.929 261.195 140.987C261.089 141.053 260.981 141.12 260.873 141.187C259.056 142.317 257.069 143.551 254.948 144.863C254.797 144.956 254.646 145.051 254.491 145.145C254.406 145.198 254.32 145.252 254.232 145.306C254.231 145.305 254.231 145.305 254.231 145.305C254.177 145.339 254.122 145.373 254.068 145.406C253.056 146.031 252.017 146.675 250.952 147.328C250.897 147.363 250.841 147.398 250.784 147.432C250.78 147.437 250.773 147.44 250.767 147.443C250.673 147.502 250.58 147.56 250.484 147.618C250.376 147.685 250.267 147.754 250.154 147.822C250.132 147.836 250.107 147.85 250.083 147.866C239.027 154.68 225.723 162.807 215.337 169.085C215.16 169.191 214.986 169.297 214.809 169.403C207.263 173.966 201.334 177.502 199.069 178.766L198.773 178.118C200.98 176.885 206.713 173.466 214.043 169.038C214.217 168.933 214.394 168.826 214.573 168.72C224.993 162.42 238.488 154.181 249.676 147.286C249.756 147.237 249.834 147.189 249.912 147.14C250.031 147.067 250.146 146.997 250.263 146.923C250.315 146.89 250.368 146.858 250.422 146.827C250.442 146.813 250.464 146.8 250.485 146.787C250.62 146.705 250.754 146.62 250.889 146.538C251.876 145.929 252.842 145.331 253.788 144.75C254.02 144.607 254.254 144.461 254.484 144.319C256.682 142.957 258.742 141.68 260.61 140.515C260.948 140.305 261.278 140.099 261.6 139.898C264.679 137.979 267.17 136.407 268.825 135.341C269.376 134.985 269.834 134.686 270.189 134.449C270.574 134.198 271.033 134.745 270.647 135.002Z" fill="#D8E4F1"/>
<path d="M265.117 140.875C264.031 141.068 262.932 140.849 261.846 141.017C261.39 141.089 261.266 140.385 261.722 140.314C262.808 140.144 263.908 140.361 264.993 140.172C265.446 140.091 265.569 140.796 265.117 140.875Z" fill="#D8E4F1"/>
<path d="M262.81 136.648C262.278 138.087 261.743 139.527 261.211 140.966C261.051 141.4 260.376 141.149 260.542 140.715C261.075 139.275 261.608 137.839 262.14 136.4C262.299 135.968 262.97 136.214 262.81 136.648Z" fill="#D8E4F1"/>
<path d="M255.071 141.991C254.7 142.814 254.358 143.996 254.534 144.901C254.621 145.354 253.918 145.476 253.83 145.025C253.63 144.002 253.981 142.675 254.402 141.742C254.589 141.325 255.26 141.57 255.071 141.991Z" fill="#D8E4F1"/>
<path d="M257.454 146.462C256.934 146.35 256.437 146.144 255.937 145.963C255.639 145.855 254.69 145.423 254.498 145.521C254.088 145.732 253.792 145.082 254.2 144.872C254.607 144.664 255.246 144.964 255.632 145.096C256.252 145.308 256.873 145.611 257.516 145.748C257.959 145.844 257.902 146.558 257.454 146.462Z" fill="#D8E4F1"/>
<path d="M249.382 141.733C249.783 142.59 250.185 143.465 250.449 144.376C250.692 145.207 250.688 146.109 251.019 146.913C251.194 147.338 250.545 147.637 250.369 147.211C250.073 146.492 250.022 145.714 249.86 144.961C249.643 143.944 249.172 142.969 248.732 142.033C248.537 141.614 249.186 141.316 249.382 141.733Z" fill="#D8E4F1"/>
<path d="M254.765 151.098C254.069 150.242 252.97 149.741 252.135 149.086C251.521 148.603 250.824 148.259 250.133 147.9C249.707 147.678 250.133 147.081 250.535 147.311C252.119 148.218 254.15 149.207 255.318 150.644C255.608 151.002 255.056 151.457 254.765 151.098Z" fill="#D8E4F1"/>
<path d="M247.47 145.485C248.569 145.954 249.622 146.523 250.737 146.949C251.167 147.113 250.92 147.783 250.489 147.619C249.372 147.192 248.321 146.624 247.222 146.155C246.8 145.973 247.047 145.303 247.47 145.485Z" fill="#D8E4F1"/>
<path d="M250.312 151.405C250.562 150.745 250.471 149.92 250.397 149.234C250.324 148.562 250.229 147.838 249.942 147.219C249.749 146.801 250.398 146.503 250.592 146.921C250.932 147.656 251.048 148.519 251.122 149.318C251.191 150.075 251.258 150.926 250.982 151.652C250.82 152.082 250.149 151.836 250.312 151.405Z" fill="#D8E4F1"/>
<path d="M237.699 152H231.699V172H237.699V152Z" fill="#296DB3"/>
<path d="M107.266 198.897C107.266 198.897 100.179 191.893 98.5077 185.882C96.8355 179.869 97.5454 177.502 99.956 175.42C102.367 173.338 106.404 176.695 107.226 180C108.047 183.305 108.788 189.078 107.266 198.897Z" fill="#D8E4F1"/>
<path d="M99.2146 196.666C99.2146 196.666 89.2614 196.221 83.9907 192.879C78.72 189.537 77.6574 187.308 78.0504 184.147C78.4434 180.985 83.6894 180.77 86.5156 182.672C89.3428 184.575 93.7642 188.362 99.2146 196.666Z" fill="#D8E4F1"/>
<path d="M117.19 205.028C117.19 205.028 111.677 195.312 111.705 188.316C111.733 181.32 113.219 178.981 116.455 177.468C119.691 175.954 123.022 180.807 122.902 184.625C122.782 188.441 121.824 194.896 117.19 205.028Z" fill="#D8E4F1"/>
<path d="M123.342 205.487C123.342 205.487 122.153 194.379 124.962 187.972C127.773 181.564 130.067 180.011 133.636 179.91C137.208 179.81 138.331 185.588 136.702 189.044C135.074 192.497 131.624 198.037 123.342 205.487Z" fill="#D8E4F1"/>
<path d="M125.505 209.392C125.505 209.392 129.397 203.896 133.223 202.12C137.05 200.344 138.708 200.558 140.362 201.937C142.015 203.316 140.22 206.378 138.103 207.29C135.991 208.199 132.222 209.328 125.505 209.392Z" fill="#D8E4F1"/>
<path d="M105.406 201.878C105.406 201.878 96.1576 198.172 89.9771 199.036C83.7967 199.901 81.9079 201.494 80.959 204.535C80.0101 207.576 84.6989 209.94 88.0589 209.374C91.4198 208.811 97.0082 207.188 105.406 201.878Z" fill="#D8E4F1"/>
<path d="M114.986 208.538C114.986 208.538 103.877 207.354 97.4735 210.169C91.0664 212.983 89.5149 215.279 89.4178 218.85C89.3207 222.421 95.0995 223.542 98.553 221.912C102.002 220.278 107.542 216.826 114.986 208.538Z" fill="#D8E4F1"/>
<path d="M117.858 213.999C117.858 213.999 107.196 217.334 102.44 222.467C97.6837 227.6 97.1719 230.322 98.505 233.636C99.838 236.951 105.585 235.679 108.103 232.807C110.623 229.937 114.327 224.563 117.858 213.999Z" fill="#D8E4F1"/>
<path d="M95.6728 194.541C96.4399 195.046 97.5555 195.763 98.971 196.655C100.976 197.92 103.585 199.543 106.645 201.432C107.034 201.672 107.431 201.918 107.835 202.167C107.958 202.242 108.076 202.315 108.199 202.39C108.339 202.477 108.483 202.565 108.626 202.654C111.034 204.135 113.667 205.753 116.478 207.473C116.677 207.596 116.878 207.721 117.083 207.844C117.196 207.913 117.31 207.984 117.426 208.055C117.428 208.054 117.428 208.054 117.428 208.054C117.5 208.098 117.572 208.142 117.643 208.186C118.985 209.005 120.362 209.85 121.773 210.706C121.845 210.752 121.92 210.798 121.995 210.843C122.001 210.849 122.01 210.853 122.018 210.857C122.143 210.935 122.267 211.01 122.394 211.086C122.537 211.175 122.681 211.265 122.83 211.353C122.86 211.373 122.893 211.391 122.924 211.412C137.575 220.347 155.205 231.003 168.967 239.234C169.201 239.374 169.432 239.512 169.666 239.65C179.665 245.632 187.521 250.267 190.521 251.924L190.909 251.066C187.985 249.451 180.389 244.969 170.676 239.163C170.445 239.024 170.21 238.884 169.973 238.746C156.166 230.486 138.284 219.682 123.458 210.64C123.352 210.576 123.248 210.514 123.145 210.448C122.988 210.353 122.835 210.261 122.679 210.165C122.611 210.122 122.54 210.08 122.47 210.038C122.443 210.02 122.414 210.006 122.386 209.986C122.207 209.878 122.029 209.767 121.85 209.66C120.542 208.861 119.262 208.077 118.009 207.315C117.701 207.127 117.392 206.936 117.087 206.749C114.174 204.963 111.444 203.288 108.968 201.761C108.52 201.485 108.083 201.216 107.656 200.953C103.577 198.435 100.275 196.374 98.0817 194.976C97.3509 194.508 96.7438 194.116 96.2737 193.805C95.7654 193.474 95.1614 194.204 95.6728 194.541Z" fill="#D8E4F1"/>
<path d="M103.017 202.273C104.453 202.521 105.904 202.225 107.339 202.441C107.942 202.532 108.101 201.602 107.498 201.511C106.062 201.293 104.608 201.587 103.176 201.343C102.576 201.239 102.418 202.172 103.017 202.273Z" fill="#D8E4F1"/>
<path d="M106.039 196.668C106.752 198.567 107.467 200.466 108.18 202.365C108.393 202.937 109.284 202.601 109.061 202.028C108.349 200.13 107.635 198.235 106.923 196.336C106.711 195.767 105.826 196.097 106.039 196.668Z" fill="#D8E4F1"/>
<path d="M116.299 203.686C116.796 204.771 117.255 206.331 117.028 207.529C116.915 208.127 117.845 208.284 117.958 207.688C118.216 206.334 117.745 204.584 117.183 203.354C116.931 202.805 116.045 203.132 116.299 203.686Z" fill="#D8E4F1"/>
<path d="M113.177 209.6C113.865 209.449 114.52 209.173 115.18 208.931C115.573 208.787 116.824 208.21 117.078 208.339C117.622 208.615 118.008 207.754 117.468 207.479C116.928 207.207 116.086 207.607 115.577 207.785C114.759 208.068 113.94 208.472 113.092 208.66C112.504 208.788 112.584 209.728 113.177 209.6Z" fill="#D8E4F1"/>
<path d="M123.813 203.305C123.288 204.441 122.762 205.599 122.419 206.805C122.104 207.904 122.114 209.096 121.682 210.16C121.453 210.723 122.313 211.114 122.542 210.55C122.929 209.599 122.992 208.57 123.201 207.574C123.482 206.229 124.098 204.938 124.674 203.698C124.929 203.144 124.069 202.754 123.813 203.305Z" fill="#D8E4F1"/>
<path d="M116.758 215.714C117.672 214.577 119.122 213.909 120.221 213.038C121.028 212.397 121.947 211.937 122.858 211.459C123.42 211.163 122.853 210.376 122.323 210.683C120.237 211.892 117.559 213.211 116.024 215.117C115.645 215.59 116.375 216.189 116.758 215.714Z" fill="#D8E4F1"/>
<path d="M126.363 208.249C124.914 208.876 123.527 209.634 122.055 210.203C121.488 210.423 121.818 211.307 122.387 211.087C123.861 210.516 125.246 209.76 126.695 209.132C127.252 208.893 126.922 208.008 126.363 208.249Z" fill="#D8E4F1"/>
<path d="M122.643 216.094C122.309 215.222 122.423 214.132 122.517 213.226C122.61 212.336 122.731 211.38 123.106 210.56C123.359 210.007 122.499 209.617 122.246 210.17C121.801 211.144 121.652 212.285 121.56 213.34C121.473 214.341 121.391 215.466 121.759 216.424C121.977 216.993 122.862 216.664 122.643 216.094Z" fill="#D8E4F1"/>
<path d="M263.889 225.584C263.889 225.584 267.721 220.796 268.312 217C268.903 213.206 268.303 211.808 266.679 210.707C265.056 209.607 262.828 211.949 262.563 214.028C262.298 216.108 262.256 219.69 263.889 225.584Z" fill="#D8E4F1"/>
<path d="M242.375 95.9087C242.978 96.8338 242.716 98.0737 241.791 98.6761C240.865 99.2785 239.625 99.0164 239.023 98.0913C238.421 97.1662 238.683 95.9263 239.608 95.3239C240.535 94.7215 241.773 94.9836 242.375 95.9087Z" fill="white"/>
<path d="M252.456 89.6819C252.909 90.3769 252.711 91.3044 252.018 91.7569C251.323 92.2094 250.395 92.0116 249.942 91.3186C249.49 90.6236 249.688 89.6962 250.381 89.2437C251.074 88.7912 252.003 88.9868 252.456 89.6819Z" fill="white"/>
<path d="M248.504 85.6995C247.613 86.2809 246.947 87.0823 246.537 87.9872C246.187 88.7585 246.019 89.6032 246.053 90.4517C246.085 91.398 246.369 92.3442 246.922 93.1946C247.914 94.7184 249.55 95.5782 251.24 95.6515C252.329 95.6986 253.437 95.4201 254.419 94.7824C256.142 93.6611 257.017 91.7159 256.861 89.797C256.793 88.9278 256.513 88.0643 256.005 87.2836C254.374 84.7815 251.008 84.0703 248.504 85.6995ZM256.498 89.7744C256.664 91.5823 255.847 93.4222 254.222 94.4814C253.159 95.1737 251.926 95.4145 250.758 95.249C249.36 95.0495 248.051 94.2744 247.221 93.0008C246.802 92.3574 246.546 91.6482 246.452 90.9314C246.318 89.9607 246.471 88.9711 246.885 88.0907C247.27 87.2667 247.882 86.5367 248.702 86.0043C251.04 84.4824 254.182 85.1446 255.702 87.4811C256.165 88.1904 256.427 88.9805 256.498 89.7744Z" fill="white"/>
<path d="M260.044 107.877C260.664 106.964 261.909 106.725 262.822 107.345C263.736 107.965 263.974 109.209 263.354 110.123C262.734 111.036 261.49 111.275 260.576 110.655C259.663 110.035 259.424 108.793 260.044 107.877Z" fill="white"/>
<path d="M224.004 302L131.281 301.949C125.433 301.946 120.695 297.11 120.699 291.145L120.801 105.794C120.805 99.8286 125.547 94.9963 131.395 95L224.117 95.0506C229.965 95.0544 234.701 99.8905 234.699 105.855L234.597 291.206C234.594 297.171 229.85 302.004 224.004 302Z" fill="#296DB3"/>
<path d="M228.699 112.058L228.641 220.661L228.603 285L126.699 284.942L126.705 273.875L126.714 258.783L126.748 198.003L126.756 182.829L126.784 135.769L126.796 112L228.699 112.058Z" fill="#9DBCDC"/>
<path d="M228.699 112H126.699V122H228.699V112Z" fill="#D8E4F1"/>
<path d="M196.665 96.1287C196.663 98.2889 194.912 100.04 192.75 100.04C190.591 100.04 188.84 98.2865 188.84 96.1264C188.842 93.9662 190.593 92.2148 192.753 92.2148C194.917 92.2148 196.665 93.9662 196.665 96.1287Z" fill="white"/>
<path d="M190.588 104.91C189.947 106.714 189.523 108.75 189.525 110.696C189.53 112.637 190.045 114.622 191.483 115.895C192.911 117.184 195.016 117.603 197.041 117.62C199.092 117.618 201.155 117.265 203.177 116.786C201.2 117.429 199.166 117.954 197.058 118.128C194.982 118.271 192.681 118.064 190.835 116.681C189.93 115.998 189.228 115.044 188.782 114.009C188.328 112.971 188.1 111.864 188.001 110.77C187.83 108.557 188.09 106.424 188.661 104.258L190.588 104.91Z" fill="#202020"/>
<path d="M187.984 87.7536C185 88.3537 182.436 90.4812 181.462 93.1618C180.488 95.8448 181.138 98.989 183.114 101.164C184.531 102.723 186.507 103.747 188.095 105.158C189.75 106.629 190.962 108.523 191.563 110.572C191.991 112.027 192.128 113.594 192.988 114.876C194.518 117.16 198.354 117.711 200.533 115.965C202.195 114.631 202.719 112.461 202.959 110.43C203.566 105.31 202.959 100.06 201.198 95.1604C200.297 92.651 199.012 90.1341 196.767 88.5C194.521 86.8659 191.107 86.3774 188.851 87.9743L187.984 87.7536Z" fill="#202020"/>
<path d="M189.121 102.648C189.121 102.648 186.599 116.494 196.665 116.995L195.498 108.549L189.121 102.648Z" fill="#202020"/>
<path d="M263.94 208.292L222.587 203.892C220.584 203.892 217.92 202.215 215.11 199.78C212.122 197.194 208.971 193.753 206.27 190.568C202.276 185.85 199.273 181.688 199.273 181.688L209.887 148.297L210.019 148.619L217.778 167.406V167.409L224.466 183.603L265.79 199.778L263.94 208.292Z" fill="#A37661"/>
<path d="M217.533 166.978V166.981L214.817 199.162C211.778 196.591 208.573 193.17 205.827 190.004C205.74 183.477 205.852 162.867 205.892 162.161C205.929 161.507 208.544 152.194 209.642 148.297L217.533 166.978Z" fill="#7F5C4C"/>
<path d="M209.069 129.036L200.318 127.43L182.318 219.684L192.237 229.16L200.819 224.117C200.819 224.119 216.349 166.866 209.069 129.036Z" fill="white"/>
<path d="M209.053 128.734C209.053 128.734 220.414 178.537 200.743 229.161L195.361 226.472C195.361 226.472 213.221 182.935 209.053 128.734Z" fill="#9DDCA0"/>
<path d="M211.012 114.997L208.149 129.811C207.904 131.076 206.512 131.726 205.406 131.096L195.361 125.357L200.7 107.863L211.012 114.997Z" fill="#A37661"/>
<path d="M194.057 87.4806L212.16 81.7812L214.924 92.7985L199.558 100.041L194.057 87.4806Z" fill="#202020"/>
<path d="M227.728 96.5402C227.723 96.705 227.696 96.8674 227.678 97.0298C227.094 101.833 225.425 106.514 222.711 110.614C221.871 111.887 220.966 113.143 219.81 114.182C216.93 116.752 209.944 117.693 206.165 116.456C202.778 115.348 200.116 112.711 198.476 109.711C196.837 106.714 196.102 103.356 195.595 100.029C192.668 100.275 189.853 97.6006 190.169 94.866C190.484 92.122 192.429 90.455 196.613 91.3888C196.743 91.3911 196.876 91.3816 197.012 91.3625C205.11 90.8227 211.564 86.0176 219.201 84.1452C220.552 83.8156 224.479 82.4472 225.546 83.4431C226.009 83.8682 226.305 84.6682 226.547 85.2175C227.129 86.457 227.481 87.7777 227.691 89.108C227.95 90.7296 228.006 92.3656 227.945 93.9991C227.905 94.8565 227.834 95.7043 227.728 96.5402Z" fill="#A37661"/>
<path d="M227.966 90.7991C223.992 91.236 219.423 90.3647 214.063 88.7495C212.517 88.2776 211.062 87.998 209.707 87.8557C212.822 86.4726 215.939 85.0496 219.269 84.1933C220.627 83.8487 224.574 82.4182 225.647 83.4593C226.113 83.9037 226.41 84.74 226.653 85.3142C227.238 86.6099 227.592 87.9905 227.803 89.3811C227.88 89.853 227.934 90.3223 227.966 90.7991Z" fill="#A37661"/>
<path d="M227.738 96.0296C221.89 96.3468 210.237 95.91 204.184 94.5701C200.589 93.7725 198.826 92.3314 197.971 91.0512C205.818 90.5317 212.072 85.9073 219.473 84.1054C220.782 83.7882 224.587 82.4712 225.622 83.4296C226.071 83.8388 226.358 84.6087 226.592 85.1374C227.155 86.3302 227.497 87.6013 227.7 88.8815C227.951 90.4421 228.006 92.0165 227.946 93.5886C227.91 94.4092 227.841 95.2251 227.738 96.0296Z" fill="#7F5C4C"/>
<path d="M222.37 78.9603C223.064 78.921 222.996 77.8782 222.301 77.915C221.609 77.9543 221.676 78.9995 222.37 78.9603Z" fill="#202020"/>
<path d="M207.716 105.845L218.319 105.259C218.643 105.242 218.896 105.516 218.826 105.811C218.422 107.47 216.838 112.039 211.726 111.767C206.406 111.486 206.988 107.39 207.274 106.192C207.322 105.996 207.503 105.858 207.716 105.845Z" fill="white"/>
<path d="M185.818 90.323C185.838 90.4359 185.845 90.404 185.858 90.4212C185.872 90.4359 185.877 90.4187 185.887 90.4163C185.909 90.4089 185.922 90.3844 185.936 90.3623C185.963 90.3181 185.99 90.2568 185.998 90.1979C186.029 90.0703 186.012 89.9329 185.961 89.7734C185.841 89.4692 185.502 89.1109 185.009 88.8778C184.523 88.6325 183.934 88.4607 183.316 88.3528C182.695 88.2399 182.047 88.2031 181.385 88.1736C181.969 87.8743 182.567 87.5725 183.218 87.3419C183.865 87.1088 184.56 86.9247 185.333 86.8708C186.098 86.8094 186.991 86.9223 187.877 87.4007C188.311 87.6486 188.738 87.9823 189.079 88.4165C189.258 88.6276 189.406 88.8631 189.543 89.1183C189.609 89.2483 189.673 89.3759 189.727 89.5231C189.754 89.5992 189.781 89.6605 189.808 89.7513C189.833 89.847 189.857 89.8936 189.882 90.085L185.818 90.323Z" fill="#202020"/>
<path d="M200.095 89.6268C199.898 90.2991 199.754 91.1186 199.653 91.8866C199.552 92.6668 199.494 93.4593 199.518 94.247C199.555 95.8148 199.847 97.4367 200.907 98.7519C200.208 98.293 199.611 97.6404 199.133 96.9067C198.647 96.1706 198.311 95.3536 198.016 94.5242C197.727 93.69 197.523 92.8312 197.366 91.9626C197.214 91.0793 197.096 90.2451 197.064 89.2734L200.095 89.6268Z" fill="#202020"/>
<path d="M241.09 78.486C237.428 86.0591 233.041 89.2947 227.384 89.8876C223.54 90.2885 219.119 89.47 213.931 87.9577C212.435 87.5161 211.028 87.252 209.714 87.1176C203.648 86.5055 199.607 88.8387 197.392 90.7205H197.383C197.254 90.7373 197.135 90.7469 197.006 90.7445C195.186 90.3317 193.796 90.4325 192.799 90.9102L188.84 87.7441C190.395 61.5108 208.678 72.1971 208.678 72.1971L213.532 65.1281C229.082 45.5965 247.224 65.7882 241.09 78.486Z" fill="#202020"/>
<path d="M189.327 91.4024C188.86 90.5854 188.514 89.8272 188.168 89.0175C187.83 88.2176 187.538 87.4006 187.307 86.5614C187.074 85.7272 186.895 84.8708 186.853 84.0023C186.809 83.141 186.885 82.2553 187.219 81.4922C187.135 82.324 187.324 83.114 187.599 83.8501C187.871 84.5887 188.264 85.2831 188.698 85.9431C189.13 86.6031 189.609 87.2337 190.124 87.8349C190.629 88.4262 191.191 89.0322 191.721 89.518L189.327 91.4024Z" fill="#202020"/>
<path d="M197.951 89.3046C199.195 88.6789 200.324 88.301 201.563 87.9649C202.785 87.6508 204.036 87.4349 205.309 87.376C207.844 87.268 210.501 87.749 212.729 89.0617L213.559 89.5499L214.248 89.9867C214.719 90.2639 215.207 90.524 215.708 90.762C216.711 91.2405 217.764 91.6404 218.844 91.9594C221 92.6121 223.255 92.9531 225.513 92.9531C226.641 92.936 227.768 92.8354 228.879 92.6415C229.983 92.4182 231.08 92.1287 232.128 91.6993C234.226 90.8577 236.149 89.5622 237.766 87.9354C241.003 84.6426 242.936 80.2236 244.126 75.7188C243.179 80.2776 241.498 84.8438 238.323 88.4556C236.736 90.2369 234.778 91.7263 232.584 92.747C231.49 93.2647 230.332 93.6401 229.159 93.9444C227.979 94.2192 226.776 94.3934 225.564 94.4768C223.142 94.6118 220.706 94.3762 218.346 93.7996C217.163 93.5175 216 93.147 214.861 92.6808C214.292 92.4477 213.73 92.1876 213.178 91.9005L212.359 91.4417L211.652 91.0785C209.775 90.102 207.616 89.837 205.501 90.0357C204.438 90.1413 203.383 90.3842 202.355 90.708C201.349 91.0295 200.277 91.4785 199.453 91.9545L199.396 91.9864C198.665 92.4084 197.733 92.1581 197.311 91.427C196.888 90.6958 197.139 89.7634 197.87 89.3414C197.899 89.3316 197.926 89.3168 197.951 89.3046Z" fill="#202020"/>
<path d="M233.9 61.4062C236.455 62.7582 238.479 65.0965 239.485 67.8348C240.503 70.5951 240.378 73.6524 239.632 76.4692C239.286 77.8972 238.641 79.2442 237.851 80.4956C237.385 81.0697 236.992 81.715 236.42 82.1984C236.15 82.4536 235.893 82.7259 235.611 82.9664L234.705 83.6215C232.249 85.3489 229.246 86.0285 226.336 86.2813C223.399 86.5095 220.454 86.2886 217.571 85.82C216.136 85.5525 214.693 85.3047 213.282 84.9342C211.842 84.5981 210.495 84.2251 209.119 84.0288L208.086 83.889C207.742 83.8522 207.399 83.8571 207.053 83.8374C206.363 83.7761 205.686 83.8644 205.009 83.8988C203.669 84.0755 202.371 84.441 201.218 85.0741C198.885 86.3254 197.297 88.6539 196.448 91.2008L194.529 90.531C195.57 87.6676 197.53 84.9293 200.386 83.5037C201.79 82.7848 203.323 82.407 204.849 82.2548C205.612 82.2328 206.378 82.1665 207.129 82.2499C207.504 82.2794 207.884 82.2892 208.257 82.3407L209.366 82.5223C210.841 82.7775 212.274 83.2216 213.633 83.5798C215.005 83.9847 216.404 84.2644 217.797 84.5686C220.594 85.1084 223.443 85.4029 226.272 85.2679C229.077 85.1084 231.942 84.5416 234.288 82.9885L235.157 82.3996C235.429 82.1812 235.674 81.9334 235.937 81.7003C236.489 81.2611 236.872 80.6649 237.333 80.1349C238.113 78.9719 238.773 77.7058 239.146 76.3318C239.949 73.6205 240.162 70.6467 239.247 67.9207C238.342 65.2143 236.413 62.8318 233.9 61.4062Z" fill="#454545"/>
<path d="M198.116 122.215C198.116 122.215 205.795 121.596 205.795 135.219C205.795 148.842 188.633 222.837 188.633 222.837C166.401 230.497 149.383 231.292 137.975 224.693C137.972 224.693 153.327 125.931 198.116 122.215Z" fill="#9DDCA0"/>
<path d="M170.58 168.05L155.945 174.94L126.236 218.724L126.246 199.202L141.319 168.428L156.595 153.512L170.58 168.05Z" fill="#A37661"/>
<path d="M154.93 153.055L171.164 170.468C171.164 170.468 208.195 143.005 202.613 127.117C197.034 111.23 154.93 153.055 154.93 153.055Z" fill="#9DDCA0"/>
<path d="M152.322 157.018L160.686 173.075L169.277 168.765L155.69 153.512L152.322 157.018Z" fill="#7F5C4C"/>
<path d="M265.444 199.727L280.398 200.698L289.494 206.015C290.829 206.795 291.11 208.72 290.06 209.898C289.391 210.65 288.422 211.005 287.463 210.851L280.64 209.762L263.682 207.949L265.444 199.727Z" fill="#A37661"/>
<path d="M272.988 205.684L279.981 211.333C280.284 211.577 280.115 212.035 279.711 212.062L277.77 212.194C276.976 212.248 276.181 212.094 275.478 211.751L267.094 207.655L272.988 205.684Z" fill="#A37661"/>
<path d="M123.699 125H117.699V146H123.699V125Z" fill="#296DB3"/>
<path d="M123.699 150H117.699V170H123.699V150Z" fill="#296DB3"/>
</svg>
